<?xml version="1.0" encoding="UTF-8" standalone="no"?>
<!-- Created with Inkscape (http://www.inkscape.org/) -->

<svg
   xmlns:dc="http://purl.org/dc/elements/1.1/"
   xmlns:cc="http://creativecommons.org/ns#"
   xmlns:rdf="http://www.w3.org/1999/02/22-rdf-syntax-ns#"
   xmlns:svg="http://www.w3.org/2000/svg"
   xmlns="http://www.w3.org/2000/svg"
   xmlns:sodipodi="http://sodipodi.sourceforge.net/DTD/sodipodi-0.dtd"
   xmlns:inkscape="http://www.inkscape.org/namespaces/inkscape"
   id="svg4136"
   version="1.1"
   inkscape:version="0.91 r13725"
   width="409.6875"
   height="668.4375"
   viewBox="0 0 409.6875 668.4375"
   sodipodi:docname="LuteSilhouette.svg">
  <metadata
     id="metadata4142">
    <rdf:RDF>
      <cc:Work
         rdf:about="">
        <dc:format>image/svg+xml</dc:format>
        <dc:type
           rdf:resource="http://purl.org/dc/dcmitype/StillImage" />
        <dc:title></dc:title>
      </cc:Work>
    </rdf:RDF>
  </metadata>
  <defs
     id="defs4140" />
  <sodipodi:namedview
     pagecolor="#ffffff"
     bordercolor="#666666"
     borderopacity="1"
     objecttolerance="10"
     gridtolerance="10"
     guidetolerance="10"
     inkscape:pageopacity="0"
     inkscape:pageshadow="2"
     inkscape:window-width="1600"
     inkscape:window-height="837"
     id="namedview4138"
     showgrid="false"
     inkscape:zoom="1.0023375"
     inkscape:cx="204.84375"
     inkscape:cy="334.21875"
     inkscape:window-x="-8"
     inkscape:window-y="-8"
     inkscape:window-maximized="1"
     inkscape:current-layer="svg4136" />
  <path
     style="fill:#000000"
     d="m 26.25,667.55106 c 0,-0.46177 1.177192,-1.09814 2.615981,-1.41415 4.722787,-1.03729 8.634019,-4.02344 8.634019,-6.59188 0,-2.00571 -0.428911,-2.35753 -2.874132,-2.35753 -1.580773,0 -3.609493,0.39355 -4.508267,0.87457 -2.652981,1.41982 -8.774463,1.61685 -9.237569,0.2973 -0.226205,-0.64453 0.03941,-1.17187 0.590259,-1.17187 2.2702,0 10.016681,-5.70436 11.065988,-8.14879 3.85852,-8.98864 3.626362,-17.32638 -0.717948,-25.78438 -1.748644,-3.40446 -2.385865,-5.55982 -1.758383,-5.94763 1.57137,-0.97116 5.671829,0.40734 10.628062,3.57296 8.536037,5.45211 24.634428,11.64851 30.916185,11.89991 2.029982,0.0813 -2.944048,-15.64936 -5.27607,-16.68582 -0.386719,-0.17188 -0.703125,-0.95889 -0.703125,-1.74892 0,-2.40462 -8.010978,-13.64652 -12.507803,-17.55235 -4.221441,-3.66662 -5.600879,-6.0713 -4.486665,-7.82127 0.368433,-0.57865 4.091138,-0.0778 9.963218,1.3405 11.943916,2.8848 31.817192,5.79967 44.76562,6.56589 9.4936,0.56179 10.0773,0.49292 10.06378,-1.18748 -0.0216,-2.67857 -0.82198,-3.44193 -7.82639,-7.46403 -17.758199,-10.19718 -22.064437,-11.36168 -29.35025,-7.93694 -9.382303,4.41019 -23.527517,0.48624 -34.205969,-9.48893 l -3.076445,-2.87383 3.883784,-2.01007 c 2.13608,-1.10554 6.130877,-3.23924 8.877327,-4.74154 3.602982,-1.97083 6.29888,-2.73719 9.681043,-2.75201 6.798518,-0.0298 14.272548,1.18979 20.067899,3.27458 2.787344,1.0027 5.424824,1.46618 5.861066,1.02994 0.436242,-0.43625 -1.211499,-4.80633 -3.661648,-9.7113 -6.688777,-13.39031 -6.799627,-13.7477 -6.78476,-21.87476 0.01945,-10.636 3.895989,-22.0815 7.477331,-22.07692 1.318878,0.002 5.769968,5.87038 8.53115,11.24819 1.53659,2.99272 2.760853,10.64879 3.202049,20.02431 0.413363,8.78388 1.926038,12.33763 7.809783,18.34755 2.40466,2.45625 4.97264,5.58872 5.70659,6.96106 1.53138,2.86336 10.46149,12.13194 16.27756,16.89451 5.12967,4.2005 16.02133,9.96007 18.83504,9.96007 1.21075,0 3.79395,-1.26563 5.74044,-2.8125 1.94649,-1.54688 3.66147,-2.8125 3.81108,-2.8125 0.14959,0 3.55463,-0.45657 7.56675,-1.01461 9.95104,-1.38406 14.2348,-0.60044 18.60619,3.4036 2.24395,2.05537 4.90449,3.47086 7.21964,3.84107 5.27734,0.84388 4.31688,3.05574 -2.28179,5.25476 -3.98323,1.32741 -5.39062,2.25111 -5.39062,3.53798 0,0.95784 0.4343,2.00995 0.96509,2.338 1.07671,0.66545 12.52142,-2.7702 15.44116,-4.63535 1.03125,-0.65878 4.53649,-2.14027 7.78942,-3.2922 3.25292,-1.15195 8.31542,-3.66298 11.25,-5.58009 2.93457,-1.91711 6.70166,-4.32508 8.37131,-5.35103 4.34605,-2.67055 12.27383,-10.47491 13.96745,-13.75001 1.17088,-2.26423 1.25084,-3.55678 0.4233,-6.84319 -0.56113,-2.22845 -1.02023,-7.96408 -1.02023,-12.74586 0,-10.14451 1.66062,-15.5112 6.20622,-20.05679 l 3.0202,-3.0202 2.45203,2.55935 c 5.26494,5.49541 7.39623,16.39784 5.12884,26.23603 -1.09139,4.73552 -8.74832,18.06459 -14.13112,24.59924 -1.98752,2.41281 -3.61367,5.22553 -3.61367,6.25048 0,1.73312 0.65536,1.86586 9.36486,1.89679 5.15067,0.0183 10.95145,0.29213 12.89062,0.60854 6.99643,1.14154 12.93663,2.71898 14.75,3.91689 1.01706,0.67188 2.99303,1.2216 4.39102,1.2216 1.6536,0 4.61102,1.66449 8.46328,4.76329 3.25681,2.61981 6.38723,5.04559 6.95649,5.39062 1.50156,0.91012 3.18373,4.41929 3.18373,6.6416 0,1.33176 -0.78872,2.09095 -2.57812,2.48158 -1.41797,0.30955 -3.63282,0.91854 -4.92188,1.35332 -14.12946,4.7656 -29.92778,2.38535 -37.5,-5.64993 -4.44144,-4.71306 -5.625,-6.28358 -5.625,-7.46411 0,-2.80312 -8.29008,-3.56429 -15.38337,-1.41248 -2.53117,0.76786 -5.74899,1.39611 -7.15071,1.39611 -1.40172,0 -6.50264,1.27487 -11.33538,2.83304 -4.83273,1.55817 -10.59914,3.09473 -12.81423,3.41458 -5.63798,0.8141 -4.93818,3.10728 1.61149,5.2807 6.80671,2.25871 23.80483,4.67555 34.7597,4.94222 4.89844,0.11924 10.05157,0.25903 11.45139,0.31063 2.81861,0.10391 4.90553,2.9306 4.07526,5.51986 -0.2831,0.88288 -1.67756,2.71666 -3.09881,4.0751 -19.02264,18.18188 -23.78637,24.24887 -19.03994,24.24887 1.62135,0 8.90733,-3.40359 11.66995,-5.45153 2.38912,-1.77106 10.14922,-4.20036 20.23378,-6.33417 12.49817,-2.6445 33.02448,-3.24604 36.02009,-1.0556 3.02735,2.21365 -0.40047,3.49501 -10.82283,4.04567 -9.153,0.4836 -23.74087,3.86059 -26.76129,6.19505 -1.75581,1.35706 -0.43973,3.27378 2.67572,3.89687 1.56527,0.31305 4.10192,1.62602 5.63699,2.9177 1.53508,1.29168 3.13542,2.34851 3.55632,2.34851 1.51542,0 1.94595,3.1717 0.61164,4.50602 -1.18917,1.18916 -2.24854,0.99098 -8.40677,-1.5727 -7.5685,-3.15077 -14.27402,-3.78534 -20.30769,-1.92179 -14.37854,4.44093 -37.20467,7.20595 -45.88997,5.55881 -7.92259,-1.50249 -8.11873,-3.88361 -0.62061,-7.53428 6.15075,-2.99467 10.34486,-5.79123 14.7531,-9.83707 2.25908,-2.07338 5.9046,-5.0265 8.10115,-6.5625 3.11588,-2.17888 3.94015,-3.30792 3.75,-5.13649 -0.22956,-2.20753 -0.65238,-2.37919 -7.27498,-2.95343 -7.80323,-0.67663 -13.44035,-2.14128 -22.42726,-5.82714 -7.43165,-3.04799 -8.51024,-3.07301 -8.51024,-0.19749 0,2.07989 5.7997,10.90125 7.64911,11.63431 0.91024,0.36079 1.06003,5.85752 0.21934,8.04832 -0.73198,1.90753 -3.5364,1.90763 -5.11944,1.8e-4 -1.41004,-1.69899 -11.4573,-6.95475 -13.29517,-6.95475 -1.49921,0 -3.8321,-2.6408 -5.94867,-6.73381 -2.55235,-4.93568 -10.34234,-11.86551 -14.13899,-12.57776 -3.39316,-0.63656 -18.83498,2.54381 -19.92422,4.10355 -1.44412,2.06791 -6.60262,4.69322 -10.36543,5.27525 -2.31259,0.35772 -6.74228,1.72705 -9.84375,3.04295 -3.10147,1.3159 -6.58825,2.76258 -7.7484,3.21484 -1.16016,0.45225 -2.10938,1.43177 -2.10938,2.1767 0,1.86794 -4.557272,7.12328 -6.177084,7.12328 -0.98431,0 -1.32556,-1.37976 -1.333238,-5.39063 -0.0056,-2.96484 -0.255487,-6.87208 -0.555141,-8.68274 -0.542859,-3.28021 -0.526734,-3.2979 4.463443,-4.89664 11.27153,-3.61115 30.27084,-9.35531 37.93838,-11.47013 1.61766,-0.44617 2.08315,-1.47081 2.47382,-5.44535 0.26466,-2.69267 0.29231,-5.21217 0.0614,-5.59888 -0.75752,-1.26885 -10.46117,-0.7355 -15.04198,0.82677 -6.08502,2.07528 -26.856109,1.23013 -36.360888,-1.47948 -12.619665,-3.59759 -13.751942,-2.64295 -8.938136,7.53583 3.659098,7.73716 4.360827,12.65087 2.457293,17.20667 -0.818349,1.95859 -1.487907,4.47036 -1.487907,5.58172 0,1.11136 -0.688287,3.00333 -1.529527,4.20436 -1.825448,2.6062 -4.643371,2.37698 -17.082736,-1.38956 -4.307057,-1.30414 -8.103932,-2.1024 -8.4375,-1.77392 -0.333567,0.32849 -1.091502,3.62485 -1.684298,7.32524 -1.010726,6.30922 -2.668529,11.79917 -4.359056,14.43538 -0.957685,1.49342 -15.297704,8.20515 -19.197016,8.98501 C 27.610065,668.11861 26.25,668.01281 26.25,667.55106 Z m 138.95217,-64.46894 c 5.33084,-5.25068 6.05073,-8.70712 1.81349,-8.70712 -1.48216,0 -4.40421,1.25493 -6.5625,2.81838 -3.44262,2.49382 -3.89066,3.24955 -3.89066,6.5625 0,3.24059 0.27935,3.74412 2.07717,3.74412 1.21616,0 3.93639,-1.83126 6.5625,-4.41788 z m 129.64158,-14.33165 c -4.125,-1.01294 -9.82031,-2.27419 -12.65625,-2.80277 -14.21455,-2.6494 -16.49914,-3.17588 -17.63737,-4.06449 -2.17163,-1.69538 0.82829,-2.431 5.92844,-1.45371 6.35748,1.21822 10.17969,0.3512 13.30171,-3.0173 4.61328,-4.97748 13.02053,-7.77745 26.06347,-8.68021 8.88402,-0.6149 15.83502,0.49307 19.33714,3.0823 2.15906,1.59626 3.69723,2.01826 5.99656,1.64512 1.70093,-0.27602 3.30617,-0.28828 3.56721,-0.0273 0.82449,0.82449 -3.11302,6.66035 -5.5879,8.28195 -1.30556,0.85543 -4.00962,3.03326 -6.00904,4.83961 -3.63036,3.27982 -3.64966,3.28479 -14.21963,3.66137 -8.31893,0.29638 -12.1896,-0.0171 -18.08434,-1.46462 z m -24.3328,-21.79735 c 0.35051,-1.16015 1.01175,-2.51015 1.46942,-3 1.8778,-2.0098 0.80551,-5.8192 -2.44912,-8.70062 -2.66243,-2.35714 -3.28513,-3.58311 -3.30184,-6.50063 -0.0113,-1.97759 -0.90006,-5.49406 -1.97497,-7.81437 -1.47068,-3.17463 -2.06727,-6.77105 -2.41053,-14.53125 l -0.45615,-10.3125 2.97547,-3.97689 c 2.3884,-3.19223 3.29721,-3.80472 4.60608,-3.10424 2.42739,1.2991 7.72799,8.11735 9.65278,12.4165 3.33041,7.43869 1.76182,25.8227 -3.26433,38.25838 -0.72941,1.80469 -1.85269,4.65234 -2.49619,6.32812 -1.31328,3.42003 -3.34555,4.23056 -2.35062,0.9375 z m 23.86405,-8.21747 c -1.25,-0.82058 -1.25,-1.02572 0,-1.8463 0.77344,-0.50773 2.88281,-0.9385 4.6875,-0.95727 1.80469,-0.0188 6.18108,-1.0574 9.72531,-2.30805 5.32096,-1.87761 7.49202,-3.33746 12.45709,-8.37632 8.17669,-8.2982 15.35968,-11.79762 25.66611,-12.50404 6.03392,-0.41357 8.36344,-0.20079 10.64137,0.97203 1.604,0.82584 4.54442,2.15347 6.53426,2.9503 2.46084,0.98544 3.45187,1.8814 3.0988,2.8015 -0.28551,0.744 -0.97162,2.96114 -1.5247,4.92698 -1.46533,5.20822 -3.57031,7.14616 -9.87949,9.09552 -3.09375,0.95588 -7.02471,2.3263 -8.73546,3.04538 -5.86991,2.4673 -16.38007,3.46516 -24.30009,2.3071 -5.13237,-0.75045 -8.79037,-0.78332 -12.33619,-0.11088 -6.35957,1.20607 -14.20042,1.20805 -16.03451,0.004 z m -153.44817,-0.86819 c -4.09952,-1.00177 -9.27465,-5.30229 -15.78331,-13.1159 -6.03835,-7.24901 -7.99748,-11.52537 -10.76675,-23.50156 -1.01345,-4.38281 -2.34534,-10.07812 -2.95978,-12.65625 -1.48719,-6.2402 -1.439,-39.69557 0.0612,-42.49875 0.60132,-1.12357 1.34292,-4.88819 1.648,-8.36581 1.07276,-12.22812 11.63152,-49.61343 17.72102,-62.74456 1.39093,-2.99936 3.21073,-6.92994 4.04399,-8.73463 0.83327,-1.80469 2.0291,-3.70312 2.6574,-4.21875 1.10736,-0.90877 4.19085,-6.3576 7.95797,-14.0625 1.0084,-2.0625 2.44949,-4.80469 3.20241,-6.09375 0.75292,-1.28906 2.04533,-3.82031 2.87204,-5.625 0.82669,-1.80469 2.18025,-4.75781 3.0079,-6.5625 0.82764,-1.80469 1.78777,-3.49642 2.13361,-3.75939 0.34583,-0.26298 0.91891,-1.63408 1.2735,-3.04688 0.35459,-1.4128 0.97958,-2.56873 1.38887,-2.56873 0.40928,0 1.23216,-1.16016 1.82862,-2.57812 1.85181,-4.40233 3.2641,-6.79688 4.00877,-6.79688 0.39336,0 0.71519,-0.46876 0.71519,-1.04167 0,-0.57293 2.03843,-4.47527 4.52985,-8.67188 2.49142,-4.19662 5.73843,-10.16145 7.21558,-13.2552 1.47715,-3.09375 4.46282,-8.36719 6.63483,-11.71875 2.172,-3.35156 5.38583,-8.83594 7.14186,-12.1875 3.96949,-7.57619 4.22439,-8.03178 10.0389,-17.9427 2.61331,-4.45442 4.75148,-8.4785 4.75148,-8.9424 0,-1.13831 2.92149,-6.79766 5.26367,-10.19647 2.89668,-4.20346 5.98633,-12.13953 5.98633,-15.37648 0,-1.59044 0.98462,-4.46536 2.18803,-6.3887 1.20342,-1.92335 2.44132,-4.34075 2.75089,-5.372 3.28451,-10.94159 5.15679,-12.63348 14.12915,-12.76784 3.5265,-0.0528 6.77578,0.26794 7.2206,0.71276 1.67063,1.67063 1.08344,7.71726 -1.8186,18.72727 l -2.99421,11.35969 2.38707,5.39759 c 1.31289,2.96867 2.38707,6.10504 2.38707,6.96971 0,0.86466 1.0651,5.13639 2.3669,9.49272 8.14155,27.24495 14.40645,52.19268 15.52603,61.82685 0.38948,3.35156 1.56877,9.89063 2.62066,14.53125 1.05187,4.64063 1.92913,9.99195 1.94945,11.89183 0.0204,1.89989 0.71664,6.54052 1.54735,10.3125 1.51357,6.8726 2.7268,30.31873 1.77383,34.28005 -1.02208,4.24864 -2.16665,1.91875 -2.76329,-5.625 -1.37272,-17.35627 -2.7043,-23.12663 -5.35109,-23.18878 -1.54101,-0.0362 -2.44328,5.78303 -1.76071,11.3555 0.75579,6.17006 -0.93808,13.43505 -2.68838,11.53051 -0.43931,-0.47801 -1.21159,-5.20186 -1.71619,-10.49744 -0.50461,-5.29557 -1.15839,-9.86925 -1.45286,-10.16372 -2.58908,-2.58908 -8.07703,6.4825 -6.85857,11.33723 0.33237,1.32425 0.32246,5.15876 -0.022,8.52112 -0.50353,4.91473 -0.92176,6.05649 -2.13309,5.82325 -1.29828,-0.24996 -1.52157,-2.23412 -1.6138,-14.33983 -0.12018,-15.77301 -0.65184,-18.87415 -3.38445,-19.74145 -2.58203,-0.81951 -3.60294,1.04661 -3.37024,6.16048 0.34957,7.6825 -0.15676,15 -1.03794,15 -0.83375,0 -1.04959,-10.55645 -1.45678,-71.25 -0.21619,-32.22547 -1.38043,-66.79977 -2.28151,-67.75397 -0.37536,-0.3975 -3.43767,-0.98 -6.80511,-1.29446 -5.69,-0.53134 -6.23183,-0.41585 -7.66791,1.63445 -0.8499,1.21339 -1.54527,2.81737 -1.54527,3.56439 0,0.74701 -0.64296,2.06866 -1.4288,2.937 -0.78584,0.86835 -2.8495,5.04952 -4.58591,9.29149 -1.73642,4.24198 -4.17316,8.83818 -5.41499,10.21377 -1.93895,2.1478 -4.08968,6.20882 -9.51694,17.96983 -0.59485,1.28906 -1.60958,2.68112 -2.25496,3.09346 -0.64537,0.41234 -1.1734,1.30466 -1.1734,1.98294 0,0.67828 -0.79277,2.24109 -1.76171,3.4729 -0.96895,1.23181 -3.06301,4.64491 -4.65347,7.58465 -1.59046,2.93975 -3.30435,6.10208 -3.80864,7.0274 -0.50429,0.92532 -3.96691,7.94008 -7.69471,15.58836 -3.72779,7.64826 -7.49123,14.82014 -8.36318,15.9375 -0.87195,1.11735 -1.90423,3.08623 -2.29396,4.37529 -0.38972,1.28906 -2.97901,7.04083 -5.75396,12.78172 -2.77495,5.74087 -5.04537,10.75791 -5.04537,11.14897 0,0.39106 -1.84021,4.55335 -4.08936,9.24954 -2.24914,4.69619 -4.38695,9.48774 -4.75067,10.6479 -0.36373,1.16015 -1.04978,2.10937 -1.52457,2.10937 -0.47478,0 -1.13458,1.69685 -1.46621,3.77078 -0.33164,2.07392 -0.96944,3.99726 -1.41733,4.27408 -0.4479,0.27681 -0.81436,1.5218 -0.81436,2.76664 0,2.24835 -2.187,7.81624 -5.86727,14.93744 -1.74403,3.37467 -8.92059,29.77194 -11.22332,41.28231 -0.51576,2.57813 -1.53384,6.16406 -2.26239,7.96875 -0.97301,2.41025 -1.39316,8.88053 -1.58279,24.375 -0.22196,18.13682 -0.0244,21.81655 1.40951,26.25 0.91721,2.83594 1.67803,5.95334 1.69071,6.92756 0.0126,0.97422 1.23411,3.73955 2.7143,6.14516 1.48019,2.40561 2.96344,5.23144 3.29612,6.27961 0.56442,1.77833 2.81985,4.61613 8.65099,10.88477 1.3204,1.41948 3.52397,2.86168 4.89681,3.20488 1.37284,0.34321 4.72295,1.60761 7.44468,2.80978 12.63978,5.58285 26.51881,0.81266 40.20417,-13.81809 6.72377,-7.18826 7.81598,-8.57871 7.81598,-9.95029 0,-0.71072 0.63359,-1.53536 1.40797,-1.83252 1.56619,-0.601 5.56652,-6.31861 8.43578,-12.05711 1.03125,-2.0625 2.08633,-3.96094 2.34462,-4.21875 0.90264,-0.90098 4.68663,-9.12097 4.68663,-10.18081 0,-0.58806 0.38836,-1.06919 0.86301,-1.06919 0.47465,0 1.13893,-1.37109 1.47616,-3.04688 0.33723,-1.67578 1.24304,-4.52343 2.01289,-6.32812 0.76987,-1.80469 1.75458,-4.125 2.18828,-5.15625 0.43368,-1.03125 1.71457,-6.09375 2.8464,-11.25 1.13183,-5.15625 2.36694,-10.00781 2.74469,-10.78125 0.76715,-1.57079 3.08121,-11.83025 5.07494,-22.5 0.72261,-3.86719 1.34275,-10.78423 1.37808,-15.37121 0.0353,-4.58698 0.43835,-8.71409 0.89563,-9.17137 1.26942,-1.26942 3.70674,0.0515 4.32098,2.3418 0.72579,2.70619 0.58221,15.90852 -0.28732,26.41953 -0.3839,4.64063 -0.34415,8.84129 0.0883,9.33482 2.58092,2.94524 6.8904,-10.01988 7.68204,-23.1115 0.46466,-7.68418 1.95646,-13.764 3.09733,-12.62313 0.31845,0.31844 0.49186,6.52684 0.38538,13.79646 l -0.1936,13.21749 2.16652,-0.30707 c 1.9397,-0.27492 2.22554,-0.945 2.73036,-6.40082 0.52675,-5.69274 1.20627,-11.04892 2.36452,-18.63773 0.88621,-5.8065 2.22595,-1.66545 2.62169,8.10346 0.40983,10.11687 0.80647,11.67184 2.78374,10.91309 1.5961,-0.61248 3.10455,-5.79413 3.93117,-13.50382 0.85724,-7.99527 1.78257,-10.3125 4.11808,-10.3125 2.20113,0 2.22154,0.0977 1.95832,9.375 -0.11205,3.94943 -1.17882,10.52397 -2.43387,15 -1.22891,4.38281 -3.48444,13.03125 -5.0123,19.21875 -2.78781,11.29013 -9.48725,27.65625 -11.32103,27.65625 -0.53923,0 -0.98042,0.60044 -0.98042,1.33432 0,0.73388 -0.97187,2.52685 -2.15971,3.98437 -1.18784,1.45753 -4.37194,6.38072 -7.07576,10.9404 -5.37651,9.06685 -5.21211,8.84423 -11.6239,15.74085 -2.44922,2.63442 -4.45313,5.10322 -4.45313,5.4862 0,0.383 -1.79297,1.91389 -3.98437,3.40199 -2.19141,1.48809 -4.53733,3.44631 -5.21316,4.3516 -0.67583,0.90529 -2.57427,2.34054 -4.21875,3.18945 -1.64449,0.84891 -4.82029,3.34605 -7.05734,5.54919 -3.82697,3.76898 -12.73183,8.83413 -15.53094,8.83413 -0.69621,0 -1.78941,0.63087 -2.42934,1.40194 -0.63993,0.77106 -2.90643,1.87576 -5.03667,2.45487 -8.041,2.18598 -16.09998,4.86128 -17.15791,5.69584 -1.43304,1.13046 -18.66281,1.75421 -22.50717,0.81481 z m -87.83121,-8.52825 c -2.508346,-0.95278 -6.248048,-2.91654 -8.310449,-4.3639 -2.062401,-1.44736 -5.232789,-3.53624 -7.045305,-4.64195 -6.509645,-3.97119 -11.155375,-10.75629 -12.104116,-17.6781 -0.664972,-4.8515 1.23528,-7.96776 4.858634,-7.96776 4.014504,0 16.900057,4.80345 21.746624,8.10667 6.706163,4.57063 13.107845,11.84045 15.813118,17.95755 3.18178,7.19457 3.021476,8.62328 -0.967548,8.62328 -1.774257,0 -3.486654,0.42187 -3.805328,0.9375 -0.856668,1.38611 -5.021936,0.9881 -10.18563,-0.97329 z m 249.30971,-15.87335 0.66362,-6.73483 -4.197,-4.38115 c -9.21606,-9.62038 -12.86473,-20.73677 -10.2077,-31.09988 0.4627,-1.80469 1.08125,-4.36193 1.37455,-5.68276 0.2933,-1.32082 1.56382,-3.60083 2.82339,-5.06669 l 2.29014,-2.6652 3.52551,1.67297 c 4.64144,2.20251 8.30942,6.25963 11.88685,13.14793 2.58873,4.98459 2.96649,6.72569 3.31806,15.29284 0.36938,9.0011 0.25242,9.82146 -1.6959,11.89535 -1.15095,1.22513 -3.41462,6.12536 -5.03037,10.88939 -3.75725,11.07821 -5.68266,12.18538 -4.75116,2.73203 z M 326.25,521.3953 c 0,-0.91046 2.33012,-2.89815 5.39062,-4.59843 5.17731,-2.87627 6.33227,-3.60258 7.88677,-4.95964 0.90976,-0.79421 2.49992,-3.35613 3.53369,-5.69314 2.3754,-5.36998 6.88118,-11.07661 10.61666,-13.44617 2.19224,-1.39061 4.60625,-1.84339 9.99683,-1.875 14.70096,-0.0862 17.72213,2.20009 14.08367,10.65792 -1.62986,3.78869 -3.51495,5.98769 -8.42931,9.83292 -6.28011,4.91385 -8.20522,5.68448 -20.11018,8.05021 -3.09375,0.61479 -7.3125,1.48321 -9.375,1.92983 -4.8697,1.05451 -13.59375,1.11965 -13.59375,0.1015 z M 58.860683,516.07658 c -2.152371,-4.99634 -3.770343,-20.28567 -2.783909,-26.30707 0.429042,-2.61895 1.490323,-5.77575 2.358403,-7.01511 3.33664,-4.76373 13.020316,-14.0044 14.675772,-14.0044 0.959917,0 2.608611,1.41171 3.687589,3.15753 1.649747,2.66935 1.951462,4.66635 1.951462,12.9164 0,6.68699 -0.400667,10.34097 -1.272854,11.60809 -0.70007,1.01708 -1.757739,3.34117 -2.350377,5.16464 -1.396459,4.29672 -7.038076,10.07304 -10.781731,11.03914 -2.425349,0.62589 -3.020683,1.3188 -3.407538,3.96601 l -0.46875,3.20761 -1.608067,-3.73284 z M 33.716251,498.84547 c -5.913034,-2.87615 -14.955782,-12.23898 -17.795298,-18.4252 -1.432292,-3.12042 -3.734163,-7.01641 -5.11527,-8.65776 -4.4792477,-5.32329 -1.4258792,-8.59878 8.038882,-8.62369 4.858008,-0.0127 5.712935,0.33602 11.428199,4.66258 12.413251,9.39708 16.679073,19.38187 11.807841,27.63799 -2.753803,4.66734 -4.396269,5.33618 -8.364354,3.40608 z m 111.607669,-1.32026 c -3.34865,-1.14593 -4.46575,-3.25338 -3.23111,-6.09559 0.37888,-0.87224 0.84651,-2.40754 1.03918,-3.4118 0.86127,-4.48929 6.79654,-7.447 12.01807,-5.98895 1.54347,0.431 7.11688,0.78363 12.38535,0.78363 8.72338,0 9.75555,0.18843 11.55492,2.10937 1.08674,1.16016 2.19312,3.18216 2.45863,4.49333 0.29734,1.46836 1.53285,2.84877 3.2169,3.59421 1.50377,0.66563 2.73414,1.55162 2.73414,1.96887 0,1.48344 -3.45766,2.05731 -17.34375,2.87857 -18.01961,1.06573 -20.85976,1.0278 -24.83233,-0.33164 z M 330.625,490.625 c -0.34375,-0.34375 -0.625,-1.93203 -0.625,-3.52951 0,-3.42813 -2.81475,-9.00896 -6.57072,-13.02785 -1.47642,-1.57976 -4.02147,-6.25589 -5.65567,-10.39138 -2.78801,-7.05533 -2.94931,-8.11222 -2.61528,-17.13608 0.20486,-5.53391 0.81473,-10.07574 1.43646,-10.69747 2.161,-2.161 11.81485,5.33782 16.80424,13.05302 2.66298,4.11783 3.34903,6.25515 3.92704,12.23437 0.3852,3.98469 0.35325,8.70036 -0.071,10.47927 -0.42426,1.77891 -1.39783,6.56261 -2.16351,10.63043 -1.69289,8.99399 -2.44529,10.40648 -4.46656,8.3852 z m 15.3125,-10.14809 c 0,-0.76896 1.26562,-2.6076 2.8125,-4.08588 1.54687,-1.47827 2.8125,-3.0696 2.8125,-3.53629 0,-0.46669 1.40704,-2.95226 3.12674,-5.52351 1.71971,-2.57124 4.29433,-7.75056 5.72138,-11.50961 2.41709,-6.36688 7.24987,-13.64353 11.40652,-17.1746 6.15356,-5.22744 19.66697,-9.858 22.40161,-7.67624 3.57462,2.85194 4.49115,5.17376 4.78437,12.12017 0.25139,5.95517 -0.0117,7.62705 -1.53741,9.76971 -1.01239,1.42177 -1.84071,2.98396 -1.84071,3.47152 0,0.48758 -1.23398,2.58997 -2.74219,4.67198 -3.12945,4.32007 -6.17238,5.19441 -17.3935,4.99769 -7.36685,-0.12915 -11.00504,1.01914 -13.0324,4.11327 -0.76148,1.16215 -3.76454,3.6928 -6.67348,5.62364 -2.90895,1.93085 -5.51569,4.1014 -5.79276,4.82343 -0.67402,1.75646 -4.05317,1.68536 -4.05317,-0.0853 z M 45.138603,469.88215 c -3.419794,-4.80266 -5.765588,-16.61737 -4.764321,-23.99575 0.944977,-6.96356 6.556511,-17.3385 12.078856,-22.33209 9.875607,-8.93006 20.435087,-13.32222 23.41024,-9.73738 1.071128,1.29064 0.891255,2.33435 -1.208745,7.01378 -1.356923,3.02362 -2.467133,6.225 -2.467133,7.11417 0,1.71593 -7.749673,16.86709 -9.842412,19.24262 -1.952801,2.21668 -7.032588,11.86632 -7.032588,13.35921 0,1.96393 -3.094745,4.45329 -5.536273,4.45329 -1.83104,0 -2.070883,0.42368 -1.829021,3.23096 0.378192,4.38968 -0.493652,4.90224 -2.808603,1.65119 z M 16.685143,440.2956 C 6.0057076,428.60301 1.5035195,419.57541 0.71913881,408.28125 c -0.28648173,-4.125 -0.31939128,-8.02734 -0.0731323,-8.67188 0.6963392,-1.82251 5.8074702,-1.38165 9.5558365,0.82426 5.009692,2.9482 11.151448,9.90244 14.382471,16.28512 2.578831,5.09431 2.858062,6.52188 2.959705,15.13145 0.09598,8.1299 -0.146371,9.79284 -1.673695,11.48437 -2.611231,2.89196 -4.26917,2.34342 -9.185181,-3.03897 z m 328.442477,-7.65213 c -12.21589,-13.05882 -16.8005,-21.17448 -18.83703,-33.34512 -1.04955,-6.27232 -1.0088,-7.45707 0.3466,-10.07812 0.84478,-1.63363 2.22634,-2.97023 3.07014,-2.97023 4.9986,0 21.43985,14.14254 24.72562,21.26865 1.42013,3.07995 1.83432,6.20825 1.92394,14.53125 0.0628,5.83349 0.0645,11.11726 0.004,11.7417 -0.11882,1.22021 -3.78836,4.9584 -4.86735,4.9584 -0.35927,0 -3.22379,-2.74793 -6.36558,-6.10653 z m 23.88887,-15.32426 c 1.21954,-2.54824 2.86562,-7.52267 3.65796,-11.05431 1.61258,-7.18765 1.68422,-7.38236 6.35864,-17.28272 1.84674,-3.91137 4.89765,-8.97387 6.7798,-11.25 3.63608,-4.39721 11.51487,-9.29468 14.95279,-9.29468 3.96022,0 6.36567,4.39893 8.00011,14.63007 0.88481,5.53872 0.79578,6.4386 -0.90212,9.11698 -1.03611,1.63443 -2.94805,3.9652 -4.24875,5.17948 -1.30071,1.21427 -2.36492,2.7588 -2.36492,3.43229 0,3.04354 -11.59212,9.78442 -20.10793,11.69285 -3.08372,0.69108 -5.69855,2.19115 -8.63572,4.95415 -5.65445,5.31914 -6.08753,5.30373 -3.48986,-0.12411 z M 36.069102,408.16542 c 1.290633,-13.8802 6.244712,-24.6538 15.649211,-34.03224 6.778513,-6.75973 7.990154,-7.50804 15.864086,-9.79748 7.064266,-2.05402 7.819119,-1.96209 10.55132,1.28494 1.914354,2.27508 2.213004,3.29837 1.573274,5.39063 -3.052402,9.98299 -6.050686,14.75623 -14.36133,22.86306 -6.367919,6.21174 -12.70057,9.65668 -20.487243,11.14498 l -5.297831,1.0126 -0.795919,4.32879 c -0.437757,2.38084 -1.377827,4.52231 -2.089048,4.75883 -1.063814,0.3538 -1.17137,-0.8794 -0.60652,-6.95411 z M 18.28125,376.24966 C 8.2161257,365.21783 4.5152501,357.55978 4.312006,347.34375 4.1660384,340.00672 8.1849594,328.125 10.812638,328.125 c 4.539032,0 11.988064,7.38867 16.089944,15.95957 2.429548,5.07654 3.76544,12.69606 4.230766,24.13099 0.233265,5.73228 -0.0308,6.91154 -2.323387,10.37588 -1.42261,2.14971 -3.107922,3.88942 -3.745137,3.86602 -0.637216,-0.0234 -3.689824,-2.81691 -6.783574,-6.2078 z m 336.5625,-0.18041 c -3.80467,-1.76439 -10.62541,-8.62873 -16.18206,-16.28553 -9.72227,-13.39683 -11.84395,-25.97479 -4.86885,-28.86397 2.22725,-0.92255 3.69266,-0.9141 7.23446,0.0417 2.44279,0.65924 5.07426,1.71739 5.8477,2.35144 0.77344,0.63404 2.31264,1.42848 3.42045,1.76541 3.89014,1.18316 11.57622,12.11135 11.58348,16.46955 0.002,1.2971 1.09012,4.46775 2.41772,7.04587 1.98328,3.85148 2.32021,5.52116 1.88906,9.36171 -0.57853,5.15339 -3.06009,9.26178 -5.81102,9.62056 -0.97952,0.12774 -3.46844,-0.55031 -5.53094,-1.50677 z m 20.19683,-6.98921 c -0.0223,-0.93566 0.79038,-3.67785 1.806,-6.09375 1.01561,-2.4159 2.75442,-7.97848 3.86401,-12.36129 3.1474,-12.43191 9.17212,-22.83196 16.90122,-29.17534 5.10666,-4.19113 6.30717,-4.83034 7.91388,-4.21379 1.08996,0.41826 1.34931,3.18415 1.34931,14.38996 0,17.867 -0.43225,18.8055 -10.72219,23.27996 -4.07177,1.77057 -8.3875,3.21921 -9.59051,3.21921 -1.20302,0 -2.19195,0.52734 -2.19764,1.17187 -0.006,0.64454 -2.0968,3.49219 -4.64692,6.32813 -3.27165,3.63834 -4.64851,4.65545 -4.67716,3.45504 z m -186.051,-5.40197 c -1.33489,-1.58643 -2.47566,-3.59034 -2.53503,-4.45313 -0.19453,-2.82666 0.25467,-5.30269 1.12651,-6.20932 0.47104,-0.48984 0.86178,-1.54453 0.86832,-2.34375 0.0151,-1.84365 4.86955,-11.46209 7.42399,-14.70953 1.06652,-1.35586 1.93913,-2.85531 1.93913,-3.33209 0,-1.40572 6.85678,-9.19275 8.09457,-9.19275 0.62426,0 1.59838,1.404 2.16471,3.11999 1.90708,5.77853 -1.7777,23.6121 -5.96292,28.85934 -1.07394,1.34645 -3.10238,4.40504 -4.50765,6.79688 -3.04507,5.18283 -5.17761,5.54545 -8.61163,1.46436 z M 45.9375,355.75167 c 0,-0.27408 0.877568,-3.12173 1.950151,-6.32812 2.740791,-8.19335 8.931678,-19.51176 12.729996,-23.27346 1.766772,-1.74974 4.112943,-4.12917 5.213713,-5.28763 4.729585,-4.97745 15.79072,-7.63023 26.326521,-6.31387 6.18616,0.77291 6.90871,2.14912 4.039247,7.69334 -3.6295,7.01275 -17.030622,22.0191 -21.019322,23.5371 -1.386856,0.5278 -6.107494,1.45065 -10.490306,2.05077 -9.496454,1.30031 -13.087134,2.66573 -15.680644,5.96284 -1.810358,2.3015 -3.069356,3.10506 -3.069356,1.95903 z m -2.725202,-31.2724 C 41.101784,321.95849 39.375,319.4789 39.375,318.96906 c 0,-0.50984 -0.607707,-1.43133 -1.350461,-2.04776 -0.742754,-0.61643 -2.490888,-4.10524 -3.884742,-7.75292 -2.072915,-5.42476 -2.552419,-8.27104 -2.633914,-15.63464 C 31.362402,280.56928 34.234123,270 37.900109,270 c 1.39129,0 8.962182,7.12778 11.949373,11.25 1.307778,1.80469 3.091125,5.52849 3.962995,8.27513 1.8984,5.9805 2.509291,22.64302 0.902896,24.62713 -0.586232,0.72406 -1.375955,3.21493 -1.75494,5.53524 -0.671809,4.11312 -3.548009,9.375 -5.124473,9.375 -0.4325,0 -2.513148,-2.06245 -4.623662,-4.58323 z m 333.578022,-4.92968 c 2.72436,-5.06748 2.83727,-5.73048 2.63732,-15.48523 l -0.20889,-10.19106 4.11767,-8.42103 c 5.71546,-11.68863 16.645,-21.99592 19.74199,-18.618 2.23934,2.44248 4.01738,11.20483 3.46784,17.08981 -0.54772,5.86537 -4.476,16.07592 -6.18487,16.07592 -0.41288,0 -2.38577,1.51266 -4.38417,3.36144 -1.9984,1.8488 -5.53434,4.33495 -7.85762,5.52478 -2.65993,1.36222 -4.99942,3.50229 -6.31771,5.77917 -1.15146,1.98873 -3.39051,5.09242 -4.97568,6.89711 l -2.88212,3.28125 2.84624,-5.29416 z m -14.25286,-8.01969 c -0.24308,-0.41176 -0.73604,-2.11974 -1.09545,-3.79553 -0.63734,-2.97157 -0.77617,-3.04687 -5.61719,-3.04687 -4.69038,0 -5.20151,-0.24519 -9.28293,-4.45313 -5.15682,-5.31666 -5.85203,-6.30464 -10.34049,-14.69524 -2.83338,-5.29665 -3.57514,-7.81817 -4.0282,-13.69334 -0.3781,-4.90306 -0.2164,-7.41069 0.50667,-7.85757 3.24805,-2.0074 23.00498,16.42409 25.40513,23.70075 0.74293,2.25236 2.04443,4.99455 2.89224,6.09375 1.97106,2.55551 4.64776,10.48552 4.64776,13.76949 0,2.51663 -2.24366,5.40714 -3.08754,3.97769 z M 74.765625,301.87202 c -2.482448,-1.55501 -1.970118,-3.72969 1.133569,-4.81165 1.525806,-0.5319 3.027784,-1.76608 3.337729,-2.74263 1.819588,-5.73301 15.864661,-16.88581 24.465597,-19.42745 5.91894,-1.74908 11.29403,-1.45624 13.48498,0.73471 2.40964,2.40964 2.36332,3.0258 -0.48158,6.40677 -1.29611,1.54034 -3.02562,4.42037 -3.84335,6.40005 -2.12199,5.13719 -3.53788,6.43421 -11.10631,10.17385 -5.964094,2.94691 -7.798416,3.38265 -16.042057,3.81071 -5.956122,0.30929 -9.898749,0.11326 -10.948578,-0.54436 z m -5.639721,-24.8696 c -1.209986,-1.30491 -3.853838,-5.4182 -5.875227,-9.14062 -3.639054,-6.70139 -3.675368,-6.86962 -3.68699,-17.08055 -0.0092,-8.09104 0.338202,-10.91835 1.612761,-13.125 0.893475,-1.54688 1.6271,-3.27412 1.630276,-3.83831 0.0089,-1.58587 7.693447,-8.82185 9.331413,-8.78675 4.578938,0.0981 10.728081,10.53798 12.129881,20.59381 1.98913,14.26905 1.59246,17.34412 -3.281869,25.44164 -2.958422,4.91471 -6.523366,8.30836 -8.727725,8.30836 -0.5129,0 -1.922533,-1.06766 -3.13252,-2.37258 z M 368.36509,271.7397 c -3.59235,-6.71237 6.34659,-30.68159 16.66138,-40.18137 9.15626,-8.4328 8.72301,-8.17194 10.20533,-6.14477 0.86699,1.18567 1.3307,4.25065 1.3307,8.7956 0,5.52261 -0.42397,7.66179 -2.03527,10.26892 -1.92594,3.11622 -8.18698,9.68318 -13.16019,13.80317 -3.30453,2.73759 -7.06196,8.05043 -7.80814,11.04036 -0.93108,3.73082 -3.78112,5.05772 -5.19381,2.41809 z M 105.65078,259.99884 c -4.42366,-0.53408 -5.26642,-2.42993 -2.65205,-5.96605 1.1007,-1.48878 2.00127,-3.06084 2.00127,-3.49348 0,-1.6076 10.033,-10.69389 15.46875,-14.00912 l 5.625,-3.43066 11.83825,-0.0412 c 13.32843,-0.0463 15.43812,0.67009 13.60632,4.62044 -0.58827,1.2686 -1.34495,2.30985 -1.68153,2.31387 -0.33658,0.004 -2.16477,2.34669 -4.06262,5.20594 -3.90358,5.88099 -10.94893,11.05399 -17.9469,13.17739 -4.89935,1.48661 -16.37522,2.32563 -22.19649,1.62282 z m 252.4232,-4.76447 c -0.51816,-1.41796 -1.1273,-3.10546 -1.35363,-3.75 -0.22633,-0.64453 -0.95837,-1.17187 -1.62676,-1.17187 -0.66839,0 -3.75183,-1.23752 -6.85209,-2.75003 -10.47623,-5.11102 -23.8665,-22.15958 -23.8665,-30.38694 0,-4.16814 1.15776,-4.3417 9.05721,-1.35775 16.30966,6.16083 31.42351,20.01482 29.87898,27.3883 -0.33268,1.58822 -0.81044,4.57517 -1.06167,6.63767 -1.04543,8.58246 -2.3797,10.305 -4.17554,5.39062 z M 100.82876,232.90969 c -4.775482,-7.28831 -5.934719,-24.32921 -2.361532,-34.71486 2.004592,-5.82642 5.826042,-12.30284 8.328192,-14.11423 0.8172,-0.5916 2.51022,-1.9719 3.76224,-3.06733 1.25203,-1.09543 2.61351,-1.6546 3.02551,-1.2426 0.412,0.412 1.60247,3.22944 2.64546,6.26098 3.02965,8.80582 2.22572,23.77657 -1.96181,36.53265 -2.09978,6.39638 -2.88742,7.39598 -8.45129,10.72558 l -3.40323,2.03661 -1.58354,-2.4168 z M 150,220.5933 c -3.24943,-0.55644 -12.38216,-3.96278 -13.81674,-5.15336 -1.98011,-1.64335 -1.40923,-2.31982 4.59466,-5.4445 11.27298,-5.86696 16.95861,-7.49544 26.16932,-7.49544 8.02201,0 8.61772,0.14091 11.33608,2.68145 2.81132,2.6274 2.83688,2.73068 1.26815,5.12486 -4.10686,6.26786 -20.2355,11.88231 -29.55147,10.28699 z m 213.04947,-3.32768 c -2.00998,-2.53242 -3.36938,-9.00674 -3.33437,-15.88029 0.0396,-7.76674 0.0939,-7.87797 9.14474,-18.71456 1.5724,-1.88264 3.63327,-4.54108 4.5797,-5.90764 2.25819,-3.26059 3.51003,-2.18938 6.26542,5.36136 1.95316,5.35235 2.03674,6.31772 0.9931,11.46926 -1.56654,7.73267 -3.44325,13.08052 -6.30236,17.95924 -3.31224,5.65189 -9.08683,8.55931 -11.34623,5.71263 z M 345,205.1563 c -10.32793,-2.88125 -23.85492,-27.14493 -21.14739,-37.93259 0.58016,-2.31154 0.87671,-2.42763 5.01156,-1.96157 3.5068,0.39527 4.93162,1.12927 7.05083,3.63224 6.79771,8.02872 11.93859,15.65257 13.16515,19.52375 1.45776,4.60083 1.51723,17.11569 0.083,17.44877 -0.48501,0.11264 -2.3584,-0.20713 -4.16308,-0.7106 z m -208.67405,-3.33927 c -1.35183,-1.35185 -1.49861,-2.86868 -1.00488,-10.38513 0.76032,-11.57463 2.88882,-18.16836 8.07832,-25.02523 7.93758,-10.48789 9.37185,-11.06345 11.7901,-4.73135 1.22897,3.21802 1.50924,6.28102 1.22236,13.35938 -0.33364,8.23237 -0.6796,9.72051 -3.33864,14.36109 -3.30618,5.77 -5.45598,7.98401 -11.22807,11.56342 -3.69416,2.29084 -4.03344,2.34357 -5.51919,0.85782 z m 95.11333,-0.69299 c -3.31133,-1.85225 -3.67316,-3.19453 -2.04182,-7.57455 0.75912,-2.03815 1.60597,-4.65496 1.88192,-5.81512 0.27593,-1.16015 0.87439,-2.10937 1.32991,-2.10937 0.45552,0 0.82821,-0.44502 0.82821,-0.98893 0,-1.01059 3.08986,-8.48602 4.72038,-11.42022 0.49754,-0.89535 0.90462,-2.70985 0.90462,-4.03222 0,-1.87284 0.7435,-2.71496 3.36353,-3.80968 2.62912,-1.09852 3.20458,-1.75334 2.63554,-2.99903 -1.05716,-2.31426 -0.70385,-7.21282 0.73706,-10.21919 1.52322,-3.17807 4.56264,-4.71471 10.13887,-5.1259 3.96765,-0.29256 4.236,-0.16187 4.50852,2.1958 0.15938,1.37879 -0.57923,4.21028 -1.64134,6.29219 -1.58793,3.1126 -2.63906,3.96651 -5.91478,4.80502 -6.06721,1.55307 -6.51308,1.77513 -6.09818,3.03703 0.21182,0.64426 2.25081,1.38232 4.53108,1.64013 3.79767,0.42937 4.16892,0.70501 4.41935,3.28125 0.15037,1.54687 -0.58791,5.50417 -1.64062,8.794 -1.05272,3.28983 -1.91403,6.93301 -1.91403,8.09596 0,1.16296 -0.63022,3.32284 -1.40047,4.79975 -0.77026,1.47691 -1.41711,3.52904 -1.43745,4.56029 -0.0573,2.90721 -3.02685,5.78977 -6.58685,6.39389 -1.77731,0.30161 -4.4971,0.78023 -6.04398,1.0636 -1.65371,0.30296 -3.82892,-0.0533 -5.27947,-0.8647 z m -61.28303,-9.44277 c -2.0625,-0.7373 -3.85547,-1.34689 -3.98438,-1.35465 -1.0395,-0.0626 0.19336,-8.83783 1.71426,-12.20162 2.80613,-6.20635 7.04106,-10.1228 14.80903,-13.69529 7.59413,-3.49254 8.35199,-3.61613 13.46568,-2.19596 4.50458,1.25101 6.19582,4.08483 3.93124,6.58715 -0.89093,0.98446 -1.96555,3.97674 -2.38806,6.64949 -1.90198,12.03187 -16.0115,20.33482 -27.54777,16.21088 z m 80.25563,-50.03258 -1.88007,-1.63057 1.90307,-5.16613 c 2.84602,-7.72588 5.06273,-9.9059 10.81867,-10.63957 4.30068,-0.54818 4.96543,-0.39711 5.89492,1.33965 0.80416,1.50259 0.70632,2.9628 -0.42098,6.28319 -2.34581,6.90942 -2.9543,7.56674 -8.8468,9.55667 -5.32032,1.7967 -5.67902,1.80903 -7.46881,0.25676 z m 5.53842,-24.57838 c 0.024,-5.93522 0.75407,-6.9866 5.99934,-8.64003 5.94196,-1.87304 9.55872,-1.98795 10.19724,-0.32399 1.54139,4.0168 -3.64937,10.95621 -8.19538,10.95621 -1.18504,0 -3.47298,0.26367 -5.08431,0.58594 -2.81994,0.56399 -2.92921,0.46741 -2.91689,-2.57813 z m 20.23296,-3.86718 c 0.48855,-3.3537 1.60329,-4.98696 7.04233,-10.31819 3.55405,-3.483596 6.46191,-6.600999 6.46191,-6.927559 0,-0.326568 1.26562,-2.650661 2.8125,-5.164654 1.54687,-2.513992 2.8125,-4.828229 2.8125,-5.142749 0,-1.787426 -6.67736,1.212565 -10.30195,4.628439 -7.99995,7.539283 -9.03548,8.200352 -14.1603,9.039705 -2.78795,0.456619 -6.18131,1.111808 -7.54078,1.455988 -1.86794,0.4729 -2.943,0.11999 -4.40065,-1.444607 -1.13152,-1.21455 -2.53185,-1.838991 -3.38759,-1.510622 -1.87896,0.721031 -4.27123,-0.198365 -4.27123,-1.641525 0,-1.691784 5.95168,-7.114856 7.80837,-7.114856 1.2715,0 1.57774,0.707177 1.40662,3.248119 -0.12031,1.786462 0.0688,3.535697 0.42033,3.887193 1.34617,1.346185 12.8607,-7.494728 12.87108,-9.882501 0.004,-0.809359 1.56476,-2.526249 3.4694,-3.815311 1.90464,-1.289063 8.44082,-7.268503 14.52485,-13.287646 C 303.08912,57.99479 305.2405,54.375 300.56905,54.375 c -4.81653,0 -2.84406,-5.027671 2.89988,-7.391575 1.97082,-0.811089 4.57875,-1.017607 7.60113,-0.601924 3.99687,0.549711 4.92469,0.3467 7.06681,-1.546229 2.98945,-2.641712 21.21925,-19.794161 28.99715,-27.283467 3.09413,-2.97932 9.1264,-7.7223397 13.40503,-10.540045 4.27864,-2.8177049 8.04198,-5.5480485 8.36298,-6.06742994 0.73581,-1.19055979 7.03802,-1.21033504 8.90839,-0.0279531 2.27579,1.4386674 -1.07304,6.4636731 -11.19758,16.802255 -4.92612,5.030274 -15.70659,16.239353 -23.95659,24.909065 -8.25,8.66971 -15.68577,16.441585 -16.52393,17.270832 -1.3544,1.339986 -7.80429,8.876284 -18.56033,21.686598 -1.95867,2.332757 -3.8264,5.074945 -4.1505,6.09375 -0.32409,1.018805 -2.91402,4.131452 -5.75538,6.916992 -2.84136,2.785547 -5.16611,5.473811 -5.16611,5.973931 0,1.11993 -15.02882,16.6177 -16.11488,16.6177 -0.43025,0 -0.52109,-1.79297 -0.20186,-3.98437 z M 265.5,83.25 c -1.93372,-1.933723 -1.2465,-4.199088 2.18887,-7.215383 5.58049,-4.899739 9.69013,-3.329356 7.75844,2.964674 -0.76731,2.500124 -1.80313,3.680989 -3.85683,4.396913 C 267.97822,84.655447 266.87906,84.629063 265.5,83.25 Z m 17.8125,-15 c -1.84757,-1.847572 -1.31255,-3.2714 2.36985,-6.306746 3.20968,-2.645686 8.69265,-3.997017 8.69265,-2.142387 0,0.801762 -8.66237,9.574133 -9.45408,9.574133 -0.26588,0 -0.98967,-0.50625 -1.60842,-1.125 z"
     id="path4146"
     inkscape:connector-curvature="0" />
</svg>
